<svg width="220" height="40" viewBox="0 0 220 40" fill="none" xmlns="http://www.w3.org/2000/svg">
<g clip-path="url(#clip0_935_29)">
<path d="M2 32.43V6.41498H6.955V16.01C8.435 14.1 10.545 13.125 12.765 13.125C17.56 13.125 21.11 16.87 21.11 23.03C21.11 29.19 17.52 32.895 12.765 32.895C10.505 32.895 8.435 31.88 6.955 30.01V32.43H2ZM11.205 28.49C14.09 28.49 16 26.305 16 23.03C16 19.755 14.09 17.53 11.205 17.53C9.605 17.53 7.775 18.465 6.955 19.715V26.385C7.775 27.595 9.605 28.49 11.205 28.49Z" fill="#DCEAFF"/>
<path d="M24.345 8.59999C24.345 6.95999 25.71 5.67499 27.31 5.67499C28.91 5.67499 30.275 6.95999 30.275 8.59999C30.275 10.24 28.95 11.565 27.31 11.565C25.67 11.565 24.345 10.24 24.345 8.59999ZM24.855 32.43V13.595H29.81V32.435H24.855V32.43Z" fill="#DCEAFF"/>
<path d="M34.72 32.43V6.41498H39.675V16.01C41.155 14.1 43.265 13.125 45.485 13.125C50.28 13.125 53.83 16.87 53.83 23.03C53.83 29.19 50.24 32.895 45.485 32.895C43.225 32.895 41.155 31.88 39.675 30.01V32.43H34.72ZM43.925 28.49C46.81 28.49 48.72 26.305 48.72 23.03C48.72 19.755 46.81 17.53 43.925 17.53C42.325 17.53 40.495 18.465 39.675 19.715V26.385C40.495 27.595 42.325 28.49 43.925 28.49Z" fill="#DCEAFF"/>
<path d="M57.065 8.59999C57.065 6.95999 58.43 5.67499 60.03 5.67499C61.63 5.67499 62.995 6.95999 62.995 8.59999C62.995 10.24 61.67 11.565 60.03 11.565C58.39 11.565 57.065 10.24 57.065 8.59999ZM57.575 32.43V13.595H62.53V32.435H57.575V32.43Z" fill="#DCEAFF"/>
<path d="M217.935 2H76.3V38.045H217.935V2Z" fill="#DCEAFF"/>
</g>
<defs>
<clipPath id="clip0_935_29">
<rect width="215.935" height="36.045" fill="white" transform="translate(2 2)"/>
</clipPath>
</defs>
</svg>
