<svg width="352" height="352" viewBox="0 0 352 352" fill="none" xmlns="http://www.w3.org/2000/svg">
<path d="M176 34.5209L193.331 0L203.588 37.2444L227.322 6.75563L230.151 45.2733L259.367 20.0193L254.592 58.3601L288.193 39.2958L276.026 75.9389L312.704 63.8071L293.64 97.4084L331.981 92.6334L306.691 121.849L345.244 124.678L314.756 148.412L352 158.669L317.479 176L352 193.331L314.756 203.588L345.244 227.322L306.691 230.151L331.981 259.367L293.64 254.592L312.704 288.193L276.026 276.026L288.193 312.704L254.592 293.64L259.367 331.981L230.151 306.691L227.322 345.244L203.588 314.756L193.331 352L176 317.479L158.669 352L148.412 314.756L124.678 345.244L121.849 306.691L92.6334 331.981L97.4084 293.64L63.8071 312.704L75.9389 276.026L39.2958 288.193L58.3601 254.592L20.0193 259.367L45.2733 230.151L6.75563 227.322L37.2444 203.588L0 193.331L34.5209 176L0 158.669L37.2444 148.412L6.75563 124.678L45.2733 121.849L20.0193 92.6334L58.3601 97.4084L39.2958 63.8071L75.9389 75.9389L63.8071 39.2958L97.4084 58.3601L92.6334 20.0193L121.849 45.2733L124.678 6.75563L148.412 37.2444L158.669 0L176 34.5209Z" fill="#DCEAFF"/>
</svg>
